<?xml version="1.0" encoding="UTF-8"?>
<svg id="Layer_1" xmlns="http://www.w3.org/2000/svg" version="1.1" viewBox="0 0 152 44">
  <!-- Generator: Adobe Illustrator 29.3.1, SVG Export Plug-In . SVG Version: 2.1.0 Build 151)  -->
  <defs>
    <style>
      .st0 {
        fill: #fff;
      }
    </style>
  </defs>
  <g>
    <path class="st0" d="M28.5,43v-5h2.1c.2,0,.5,0,.6.1.2,0,.3.2.5.3s.2.3.3.5v1.2c0,.2-.1.3-.3.5-.1.1-.2.2-.5.3-.2,0-.3.1-.6.1h-1.6v1.8h-.5,0ZM29.1,40.7h2c.1,0,.2-.1.3-.2s.1-.2.2-.3,0-.2,0-.5v-.5c0-.1-.1-.2-.2-.3,0,0-.2-.2-.3-.2h-1.8v2.3-.2Z"/>
    <path class="st0" d="M40.8,38v5h-.5v-2.3h-3v2.3h-.5v-5h.5v2.2h3v-2.2h.5Z"/>
    <path class="st0" d="M45.4,43l2.1-5h.3l2.1,5h-.6l-.7-1.5h-2.2l-.7,1.5h-.5.1ZM47.7,38.6l-1,2.4h2.1s-1-2.4-1-2.4Z"/>
    <path class="st0" d="M54.6,43v-5h2.1c.2,0,.5,0,.6.1.2,0,.3.2.5.3.1.1.2.3.3.5v1.2c0,.1-.1.3-.2.5,0,.1-.2.2-.3.3-.1,0-.2.1-.5.2l1.3,2h-.6l-1.2-1.8h-1.5v1.8h-.5,0ZM55,40.7h2c.1,0,.2-.1.3-.2s.1-.2.2-.3v-.9c0-.1-.1-.2-.2-.3,0,0-.2-.2-.3-.2h-2v2.3-.2Z"/>
    <path class="st0" d="M67.5,43v-4l-1.8,3.1h-.2l-1.8-3.1v4h-.5v-5h.5l2,3.5,2-3.5h.5v5h-.5Z"/>
    <path class="st0" d="M72.6,43l2.1-5h.3l2.1,5h-.6l-.7-1.5h-2.2l-.7,1.5h-.5.1ZM74.9,38.6l-1,2.4h2.1l-1-2.4Z"/>
    <path class="st0" d="M81.4,40.4c0-.3,0-.6.1-.9,0-.3.2-.6.5-.8.2-.2.5-.5.7-.6s.6-.2,1-.2.8,0,1.2.3c.3.2.6.5.7.8l-.3.2c0-.1-.2-.3-.2-.5,0,0-.2-.2-.3-.2s-.2-.1-.5-.1h-.5c-.3,0-.6,0-.8.2-.2.1-.5.2-.6.5s-.2.5-.3.7c0,.2-.1.5-.1.7s0,.6.1.8c0,.2.2.5.3.7s.3.3.6.5c.2,0,.5.1.7.1h.5c.1,0,.3,0,.5-.1.1,0,.2-.1.3-.2.1,0,.2-.2.3-.5l.5.2c0,.2-.2.3-.3.5-.1.1-.3.2-.5.3-.2,0-.3.1-.6.2s-.3,0-.6,0c-.3,0-.7,0-.9-.2-.2-.1-.6-.3-.7-.6-.2-.2-.3-.5-.5-.8,0-.3-.1-.6-.1-.9h-.1Z"/>
    <path class="st0" d="M93.8,42.5v.5h-3.3v-5h3.2v.5h-2.8v1.8h2.4v.5h-2.4v1.8h2.9Z"/>
    <path class="st0" d="M100.7,42.6c.3,0,.6,0,.8-.2.2-.1.3-.2.5-.5s.2-.5.2-.7v-3.3h.5v3.5c0,.3-.2.6-.3.8s-.3.5-.7.6c-.2.1-.6.2-.9.2s-.7,0-1-.2c-.2-.1-.5-.3-.7-.6-.1-.2-.2-.5-.3-.8v-3.5h.5v3.3c0,.2.1.5.2.7.1.2.2.3.5.5s.5.2.8.2h.1Z"/>
    <path class="st0" d="M111.3,38.5h-1.7v4.5h-.5v-4.5h-1.7v-.5h4v.5h-.1Z"/>
    <path class="st0" d="M116,43v-5h.5v5h-.5Z"/>
    <path class="st0" d="M121.3,40.4c0-.3,0-.6.1-.9,0-.3.2-.6.5-.8.2-.2.5-.5.7-.6s.6-.2,1-.2.8,0,1.2.3c.3.2.6.5.7.8l-.3.2c0-.1-.2-.3-.2-.5,0,0-.2-.2-.3-.2s-.2-.1-.5-.1h-.5c-.3,0-.6,0-.8.2-.2.1-.5.2-.6.5s-.2.5-.3.7c0,.2-.1.5-.1.7s0,.6.1.8c0,.2.2.5.3.7s.3.3.6.5c.2,0,.5.1.7.1h.5c.1,0,.3,0,.5-.1.1,0,.2-.1.3-.2.1,0,.2-.2.3-.5l.5.2c0,.2-.2.3-.3.5-.1.1-.3.2-.5.3-.2,0-.3.1-.6.2s-.3,0-.6,0c-.3,0-.7,0-.9-.2-.2-.1-.6-.3-.7-.6-.2-.2-.3-.5-.5-.8,0-.3-.1-.6-.1-.9h-.1Z"/>
    <path class="st0" d="M129.7,43l2.1-5h.3l2.1,5h-.6l-.7-1.5h-2.2l-.7,1.5h-.5.1ZM132,38.6l-1,2.4h2.1l-1-2.4Z"/>
    <path class="st0" d="M138.9,43v-5h.5v4.5h2.9v.5s-3.3,0-3.3,0Z"/>
    <path class="st0" d="M149.7,38.9c-.1-.1-.3-.2-.6-.3-.2,0-.5-.1-.8-.1s-.8,0-.9.2c-.2.1-.3.3-.3.7v.3s.1.2.2.2c0,0,.2.1.5.2.2,0,.3,0,.6.1.2,0,.5.1.7.2.2,0,.3.1.6.2.1,0,.2.2.3.3,0,.1.1.3.1.6s0,.5-.1.6c0,.1-.2.3-.3.5-.1,0-.3.2-.6.2h-.7c-.8,0-1.5-.2-2-.7l.2-.3c.2.2.5.3.7.5.3.1.7.2,1,.2s.7,0,.9-.2c.2-.1.3-.3.3-.7v-.3s-.1-.2-.2-.2-.2-.1-.5-.2c-.2,0-.5,0-.7-.1-.2,0-.5-.1-.7-.2-.2,0-.3-.1-.5-.2-.1,0-.2-.2-.3-.3v-.5c0-.1,0-.5.1-.6,0-.2.2-.3.3-.5.1-.1.3-.2.6-.2h.7c.2,0,.6,0,.9.1s.5.2.7.5l-.2.3v-.2Z"/>
  </g>
  <g>
    <path class="st0" d="M2.1,14.7c.1-2.9,1.5-4.8,3.5-6s4.5-1.5,7-1.5c5.3,0,10.4,1.2,10.4,7.5v9.7c0,1.8,0,3.9.8,5.6h-7.4c-.2-.7-.3-1.4-.5-2.1-1.8,2-4.7,2.8-7.4,2.8-4.3,0-7.6-2.2-7.6-6.7,0-7.3,7.8-6.7,12.9-7.7,1.3-.2,2-.7,2-2.1s-2-2.3-3.5-2.3-3.3.9-3.7,2.8H1.8h.2ZM11.5,26.3c3.5,0,4.6-2,4.5-6.6-1,.7-2.9.8-4.5,1.2s-3,1-3,2.9,1.4,2.5,3,2.5Z"/>
    <path class="st0" d="M25.7,7.8h7v3.9h0c1-2.9,3.6-4.4,6.7-4.4s1.2,0,1.7.1v6.7c-.9-.2-1.8-.5-2.8-.5-3.6,0-5.5,2.5-5.5,5.3v11.1h-7.3V7.8h.1Z"/>
    <path class="st0" d="M43.6,7.8h7v3.9h0c1-2.9,3.6-4.4,6.7-4.4s1.2,0,1.7.1v6.7c-.9-.2-1.8-.5-2.8-.5-3.6,0-5.5,2.5-5.5,5.3v11.1h-7.3V7.8h.1Z"/>
  </g>
  <g>
    <path class="st0" d="M113.2,20.7c.1,3,1.8,5.1,5,5.1s3.5-.8,4.1-2.4h6.8c-1.4,5.2-6.1,7.4-11.1,7.4-7.3,0-12.2-4.4-12.2-11.9s5.4-11.8,12-11.8,12,6,11.6,13.5h-16.4.1ZM122.2,16.7c-.1-2.5-1.8-4.5-4.4-4.5s-4.3,1.8-4.7,4.5h9.1Z"/>
    <path class="st0" d="M135,18.4l-7-10.6h8.1l3.1,5.3,3.1-5.3h7.7l-6.9,10.5,7.8,11.8h-8.1l-3.8-6.5-3.7,6.5h-8.1l7.7-11.6Z"/>
    <path class="st0" d="M105,12.5v-4.7h-4.5V.9l-7.3,3.1v3.8h-3.7v4.7h3.7v9.9c0,6,1.6,7.8,7.8,7.8s2.6-.1,4-.2v-5.3h-1.8c-1.6,0-2.6-.3-2.6-2.2v-10.1h4.5-.1Z"/>
  </g>
  <rect class="st0" x="2.1" y="40.7" width="21" height=".5"/>
  <g>
    <path class="st0" d="M63,13.7c-.2,1-1,1.8-1.4,1.8s-.3-.6-.1-1.5.6-1.7,1-2c.5-.1.7.5.5,1.5h0Z"/>
    <path class="st0" d="M62.2,18.2c0,1-.5,1.8-.9,1.8s-.5-.9-.5-1.8,0-1.7.5-1.8c.3,0,.9.7.9,1.8Z"/>
    <path class="st0" d="M63,22.8c.2,1,0,1.6-.5,1.5-.5-.1-.8-1-1-2s-.2-1.5.1-1.5,1.2.8,1.4,1.8h0Z"/>
    <path class="st0" d="M87.9,14c.2.9.2,1.5-.1,1.5s-1.2-.8-1.4-1.8c-.2-1,0-1.6.5-1.5s.8,1,1,2h0Z"/>
    <path class="st0" d="M88.5,18.2c0,.9,0,1.7-.5,1.8-.3,0-.9-.7-.9-1.8s.5-1.8.9-1.8.5.9.5,1.8Z"/>
    <path class="st0" d="M87.9,22.3c-.2.9-.6,1.7-1,2-.5.1-.7-.5-.5-1.5s1-1.8,1.4-1.8.3.6.1,1.5h0Z"/>
    <path class="st0" d="M68.2,8.4c-.1.8-1,1.6-2,1.8-.9.1-1.4-.3-1.2-1.2s1-1.5,1.8-1.6,1.4.2,1.3,1h0Z"/>
    <path class="st0" d="M67,13c0,1-.9,2.1-1.7,2.1s-1.4-.7-1.4-1.7.8-1.8,1.6-2c.8-.1,1.5.5,1.5,1.6Z"/>
    <path class="st0" d="M66.9,18.2c0,1.3-.8,2.2-1.8,2.2s-1.6-1-1.6-2.2.7-2.1,1.6-2.2c.9,0,1.8.9,1.8,2.2Z"/>
    <path class="st0" d="M67,23.5c0,1-.6,1.7-1.5,1.6-.8-.1-1.6-1-1.6-2s.5-1.7,1.4-1.7,1.7,1,1.7,2.1Z"/>
    <path class="st0" d="M68.2,28.1c.1.8-.5,1.2-1.3,1s-1.6-.9-1.8-1.6.2-1.3,1.2-1.2,1.8,1,2,1.8h0Z"/>
    <path class="st0" d="M84.2,9.1c.2.8-.2,1.3-1.2,1.2s-1.8-1-2-1.8.5-1.2,1.3-1,1.6.9,1.8,1.6h0Z"/>
    <path class="st0" d="M85.3,13.4c0,1-.5,1.7-1.4,1.7s-1.7-1-1.7-2.1.6-1.7,1.5-1.6c.8.1,1.6,1,1.6,2Z"/>
    <path class="st0" d="M85.8,18.2c0,1.2-.7,2.1-1.6,2.2-.9,0-1.8-.9-1.8-2.2s.8-2.2,1.8-2.2,1.6,1,1.6,2.2Z"/>
    <path class="st0" d="M85.3,23c0,1-.8,1.8-1.6,2-.8.1-1.5-.5-1.5-1.6s.9-2.1,1.7-2.1,1.4.7,1.4,1.7Z"/>
    <path class="st0" d="M84.2,27.4c-.2.8-1,1.5-1.8,1.6-.8.1-1.4-.2-1.3-1s1-1.6,2-1.8c.9-.1,1.4.3,1.2,1.2h0Z"/>
    <path class="st0" d="M73.7,4.8c0,.3-.8,1-1.8,1.3s-1.8-.1-1.7-.6,1-.7,2-.8,1.6-.2,1.6.1Z"/>
    <path class="st0" d="M73.6,8.1c0,.8-1,1.5-2.3,1.5s-2.1-.7-2-1.5,1.2-1.3,2.2-1.3,2,.5,2,1.3h.1Z"/>
    <path class="st0" d="M73.5,12.4c0,1.3-1,2.3-2.4,2.3s-2.2-.9-2.2-2.2,1-2.1,2.3-2.2c1.3,0,2.2.8,2.2,2h.1Z"/>
    <path class="st0" d="M73.5,18.2c0,1.3-1,2.4-2.3,2.4s-2.3-1-2.3-2.4,1-2.3,2.3-2.4,2.3,1,2.3,2.4Z"/>
    <path class="st0" d="M73.5,24c0,1.3-1,2.1-2.2,2-1.3,0-2.3-.9-2.3-2.2s.9-2.2,2.2-2.2,2.3,1,2.4,2.3h-.1Z"/>
    <path class="st0" d="M73.6,28.4c0,.8-.8,1.3-2,1.3s-2.1-.6-2.2-1.3c-.1-.8.7-1.5,2-1.5s2.2.8,2.3,1.5h-.1Z"/>
    <path class="st0" d="M73.7,31.6c0,.3-.7.3-1.6.1-.9-.1-1.7-.3-2-.8-.1-.5.7-.8,1.7-.6s1.8.8,1.8,1.3Z"/>
    <path class="st0" d="M79.1,5.5c.1.5-.7.8-1.7.6s-1.8-.8-1.8-1.3.7-.3,1.6-.1,1.7.3,2,.8Z"/>
    <path class="st0" d="M79.8,8.2c.1.8-.7,1.5-2,1.5s-2.2-.8-2.3-1.5c0-.8.8-1.3,2-1.3s2.1.6,2.2,1.3h.1Z"/>
    <path class="st0" d="M80.3,12.7c0,1.2-.9,2.2-2.2,2.2s-2.3-1-2.4-2.3,1-2.1,2.2-2,2.3.9,2.3,2.2h.1Z"/>
    <path class="st0" d="M80.4,18.2c0,1.3-1,2.3-2.3,2.4-1.3,0-2.3-1-2.3-2.4s1-2.4,2.3-2.4,2.3,1,2.3,2.4Z"/>
    <path class="st0" d="M80.3,23.8c0,1.2-1,2.1-2.3,2.2-1.3,0-2.2-.8-2.2-2s1-2.3,2.4-2.3,2.2.9,2.2,2.2h-.1Z"/>
    <path class="st0" d="M79.8,28.3c-.1.8-1.2,1.3-2.2,1.3s-2-.5-2-1.3,1-1.5,2.3-1.5,2.1.7,2,1.5h-.1Z"/>
    <path class="st0" d="M79.1,31c-.1.5-1,.7-2,.8s-1.6.2-1.6-.1.8-1,1.8-1.3,1.8.1,1.7.6Z"/>
  </g>
</svg>